<svg version="1.2" xmlns="http://www.w3.org/2000/svg" viewBox="0 0 197 124" width="197" height="124"><style>.a{fill:#ff6b00}.b{fill:#fff}</style><path class="a" d="m0 0h197v102.9c0 10.5-10.6 19.1-23.7 19.1h-149.6c-13.1 0-23.7-8.6-23.7-19.1z"/><path class="b" d="m51 91.9l1-0.1c1.2-0.1 1.2-0.3 1.2-3.8v-10.1c0-3.5 0-3.7-1.2-3.8l-1-0.1v-0.6h7.5c2.8 0 7.1 0.4 7.1 5.2 0 3.9-4.4 5.8-7.1 5.8h-0.5v-0.7c1.2 0 4.5-0.6 4.5-4.9 0-3.4-2.2-4.5-4.9-4.5-0.6 0-1.2 0.1-1.7 0.3v13.4c0 3.5 0 3.7 1.5 3.8l1.1 0.1v0.6h-7.5v-0.6z"/><path fill-rule="evenodd" class="b" d="m65.3 84.9c0-5 3.9-8.1 8.4-8.1 4.5 0 7.9 2.7 7.9 7.9 0 5.2-3.8 8.2-8.4 8.2-4.6 0-7.9-2.9-7.9-8zm8.4 7.2c3.9 0 5.4-3.4 5.4-6.8 0-4.4-2.2-7.8-5.8-7.8-3.7 0-5.5 3-5.5 7 0 4.8 2.4 7.6 5.9 7.6z"/><path class="b" d="m88.6 83.7c1.8 1 3.7 2 3.7 4.8 0 3.2-2.9 4.4-5.3 4.4-1.9 0-3-0.5-3.7-1-0.4-0.9-0.7-2.6-0.7-4.1l0.7-0.2c0.3 1.7 1.1 4.5 4.3 4.5 1.6 0 2.8-1.1 2.8-2.9 0-1.7-1.4-2.9-3.2-3.7l-1.5-0.8c-1.3-0.7-2.6-2.2-2.6-3.9 0-2.8 2.4-4 4.9-4 1.4 0 2.6 0.3 3.2 0.7 0.1 0.8 0.2 2.7 0.2 3.2h-0.6c-0.2-1.1-0.6-3.2-3.2-3.2-1.4 0-2.6 1-2.6 2.6 0 1.4 1.1 2.1 2.3 2.9z"/><path class="b" d="m92.4 92l0.8-0.1c0.9-0.1 0.9-0.2 0.9-3v-8.1c0-2.9 0-3-0.9-3.1l-0.8-0.1v-0.5h5.6v0.5l-0.8 0.1c-0.9 0.1-0.9 0.2-0.9 3.1v8.1c0 2.8 0 2.9 0.9 3l0.8 0.1v0.5h-5.6z"/><path class="b" d="m102.6 92l0.9-0.1c1.3-0.1 1.3-0.2 1.3-3v-11.1h-1.2c-3.3 0-3.4 0.3-3.9 3h-0.5c0-0.1-0.1-0.7-0.1-1 0-1.1 0.2-2.2 0.3-2.7h12.9c0.1 0.5 0.3 1.6 0.3 2.7 0 0.3-0.1 0.9-0.1 1h-0.5c-0.5-2.7-0.6-3-3.9-3h-1.2v11.1c0 2.8 0 2.9 1.3 3l0.9 0.1v0.5h-6.5v-0.5z"/><path class="b" d="m113.4 92l0.8-0.1c0.9-0.1 0.9-0.2 0.9-3v-8.1c0-2.9 0-3-0.9-3.1l-0.8-0.1v-0.5h5.6v0.5l-0.8 0.1c-0.9 0.1-0.9 0.2-0.9 3.1v8.1c0 2.8 0 2.9 0.9 3l0.8 0.1v0.5h-5.6z"/><path class="b" d="m121.7 79.5c-0.3-0.9-0.6-1.7-1.3-1.8l-0.7-0.1v-0.5h5.8v0.5l-0.7 0.1c-0.4 0.1-1.1 0.1-1.1 0.6 0 0.1 0.2 0.6 0.3 0.9l4 10.4c0.6-1.4 4.2-10.4 4.2-11.2 0-0.4-0.4-0.5-0.9-0.6l-1-0.2v-0.5h5v0.5l-0.6 0.2c-0.3 0-0.5 0.2-0.7 0.4-0.5 0.5-1.3 2.7-1.9 3.8l-1.5 3.9c-1.4 3.2-2.5 6-2.7 6.6-0.1 0.1-0.5 0.3-0.8 0.4l-5.4-13.4z"/><path fill-rule="evenodd" class="b" d="m130.2 92l0.4-0.1c0.9-0.1 1-0.4 1.6-1.7l4.8-11.8q0.3-0.7 0.6-1.4l0.7-0.2 5.1 13.5c0.4 0.9 0.6 1.5 1.2 1.6l0.9 0.1v0.5h-5.7v-0.5l1-0.2c0.4 0 0.7-0.2 0.7-0.4 0-0.2 0-0.3-0.1-0.5l-1.6-4.4q-1.3-0.3-2.6-0.2-1.2 0-2.4 0.2l-1.2 3.2c-0.3 0.8-0.5 1.4-0.5 1.6 0 0.4 0.3 0.5 0.6 0.5l1.4 0.2v0.5h-4.9v-0.5zm4.9-6.4c0.7 0 1.4-0.1 2.1-0.1q1.1 0 2.2 0.1l-2.1-5.7z"/><path class="b" d="m69.4 98.4c-0.1 0.5-0.2 0.9-0.3 1.3-0.3 0.1-0.9 0.3-1.6 0.3-1.4 0-2.8-0.7-2.8-2.6 0-2 1.6-2.7 2.8-2.7 0.8 0 1.4 0.2 1.6 0.4 0 0.3 0.1 0.7 0.1 1.1h-0.2c-0.1-0.3-0.2-1.2-1.5-1.2-1.3 0-2 0.8-2 2.2 0 1.4 0.6 2.6 2 2.6 1.2 0 1.4-0.8 1.7-1.4z"/><path fill-rule="evenodd" class="b" d="m69.6 97.9c0-1.3 1-2.2 2.2-2.2 1.2 0 2.1 0.8 2.1 2.1 0 1.4-1 2.2-2.2 2.2-1.2 0-2.1-0.8-2.1-2.1zm2.2 1.9c1 0 1.4-0.9 1.4-1.8 0-1.2-0.5-2.1-1.5-2.1-0.9 0-1.4 0.8-1.4 1.9 0 1.2 0.6 2 1.5 2z"/><path class="b" d="m74.2 99.7h0.2q0.1 0 0.2-0.1c0 0 0.1-0.4 0.1-1l0.1-1.5c0-0.4 0.1-1.1 0.1-1.3h0.1c0.2 0.3 1.6 2.9 1.8 3.3 0.2-0.3 1.6-3 1.7-3.3h0.1c0 0 0.1 0.7 0.1 1.5l0.1 1.1c0 0.5 0 1.1 0.1 1.2q0 0.1 0.2 0.1h0.2v0.2h-1.6v-0.2h0.3c0.2 0 0.3-0.1 0.3-0.4 0-0.7-0.1-2-0.1-2.4h-0.1c-0.1 0.3-0.7 1.5-1.3 2.7q0 0.1-0.1 0.2l-0.1 0.1c-0.2-0.3-1-1.8-1.4-2.6q-0.1-0.2-0.1-0.4h-0.1c0 0.4-0.1 2.1-0.1 2.3 0 0.4 0 0.5 0.3 0.5h0.3v0.2h-1.3v-0.2z"/><path class="b" d="m79.6 99.7h0.2c0.2 0 0.2 0 0.2-0.8v-2.1c0-0.7 0-0.8-0.2-0.8h-0.2v-0.2h1.6c0.5 0 1.4 0.1 1.4 1.1 0 0.9-0.9 1.3-1.5 1.3h-0.1v-0.2c0.3 0 1-0.1 1-1 0-0.7-0.5-0.9-1-0.9q-0.2 0-0.4 0v2.8c0 0.8 0 0.8 0.3 0.8h0.2v0.2h-1.5v-0.2z"/><path fill-rule="evenodd" class="b" d="m82.3 99.7h0.1c0.2 0 0.3-0.1 0.4-0.4l1.3-3.1q0.1-0.2 0.1-0.4l0.2-0.1 1.4 3.6c0.1 0.2 0.1 0.4 0.3 0.4l0.2 0.1v0.1h-1.5v-0.1l0.3-0.1q0.2 0 0.2-0.1 0-0.1-0.1-0.1l-0.4-1.2q-0.3-0.1-0.7-0.1-0.3 0-0.6 0.1l-0.3 0.9c-0.1 0.2-0.1 0.3-0.1 0.4 0 0.1 0 0.1 0.1 0.1l0.4 0.1v0.1h-1.3v-0.1zm1.3-1.7q0.3-0.1 0.5-0.1 0.3 0 0.6 0.1l-0.5-1.5z"/><path class="b" d="m86.2 99.7h0.2c0.3 0 0.3-0.2 0.3-0.8v-3.1h0.2c0.5 0.6 2.3 2.5 2.9 3.2v-2.1c0-0.7 0-0.9-0.3-0.9h-0.2v-0.2h1.3v0.2h-0.2c-0.3 0-0.3 0.2-0.3 0.9v3h-0.1q-0.2-0.2-1.2-1.2l-1.8-1.9v2c0 0.7 0 0.9 0.3 0.9h0.2v0.2h-1.3v-0.2zm1.4-4.4c0-0.1 0.2-0.5 0.6-0.5q0.2 0 0.4 0.1 0.2 0.1 0.5 0.1c0.1 0 0.3-0.2 0.3-0.2h0.1c-0.1 0.2-0.3 0.5-0.6 0.5-0.3 0-0.7-0.2-0.9-0.2-0.2 0-0.3 0.2-0.4 0.3z"/><path class="b" d="m90.9 99.7h0.2c0.2 0 0.2 0 0.2-0.8v-2.1c0-0.7 0-0.8-0.2-0.8h-0.2v-0.2h1.4v0.2h-0.2c-0.2 0-0.2 0.1-0.2 0.8v2.1c0 0.8 0 0.8 0.2 0.8h0.2v0.2h-1.4z"/><path fill-rule="evenodd" class="b" d="m92.4 99.7h0.1c0.2 0 0.2-0.1 0.4-0.4l1.2-3.1q0.1-0.2 0.2-0.4l0.2-0.1 1.3 3.6c0.1 0.2 0.2 0.4 0.3 0.4l0.3 0.1v0.1h-1.5v-0.1l0.3-0.1q0.1 0 0.1-0.1 0-0.1 0-0.1l-0.4-1.2q-0.4-0.1-0.7-0.1-0.3 0-0.6 0.1l-0.3 0.9c-0.1 0.2-0.2 0.3-0.2 0.4 0 0.1 0.1 0.1 0.2 0.1l0.3 0.1v0.1h-1.2v-0.1zm1.2-1.7q0.3-0.1 0.6-0.1 0.3 0 0.6 0.1l-0.6-1.5z"/><path fill-rule="evenodd" class="b" d="m97.7 99.8h0.2c0.2-0.1 0.2-0.1 0.2-0.7v-1.8c0-0.6 0-0.6-0.2-0.6l-0.2-0.1v-0.1h1.7c1.1 0 1.7 0.6 1.7 1.6 0 1.3-1 1.8-2 1.8h-1.4zm0.9-0.1q0.3 0 0.6 0c0.9 0 1.4-0.5 1.4-1.5 0-1-0.6-1.5-1.5-1.5q-0.2 0-0.5 0.1z"/><path class="b" d="m101.5 99.8h0.2c0.2-0.1 0.2-0.1 0.2-0.7v-1.8c0-0.6 0-0.6-0.2-0.6l-0.2-0.1v-0.1h2.2c0 0.1 0 0.3 0 0.6 0 0.1 0 0.1 0 0.2h-0.1c-0.1-0.5-0.1-0.6-0.8-0.6h-0.5v1.4h0.5c0.4 0 0.5 0 0.5-0.2v-0.2h0.2v0.9h-0.2v-0.2c0-0.2-0.1-0.2-0.5-0.2h-0.5v1.5q0.3 0 0.6 0c0.8 0 0.9-0.3 1-0.7h0.1c0 0.4-0.1 0.6-0.2 0.9h-2.3v-0.1z"/><path class="b" d="m107.6 97c0.6 0.3 1.2 0.7 1.2 1.6 0 1-1 1.4-1.8 1.4-0.5 0-0.9-0.2-1.1-0.3-0.2-0.3-0.3-0.9-0.3-1.3l0.3-0.1c0 0.5 0.3 1.4 1.4 1.4 0.5 0 0.9-0.3 0.9-0.9 0-0.5-0.5-0.9-1.1-1.2l-0.5-0.3c-0.4-0.2-0.8-0.7-0.8-1.2 0-1 0.8-1.3 1.6-1.3 0.4 0 0.8 0.1 1 0.2 0.1 0.2 0.1 0.9 0.1 1h-0.2c-0.1-0.3-0.2-1-1-1-0.5 0-0.9 0.3-0.9 0.8 0 0.5 0.4 0.7 0.8 1l0.4 0.2z"/><path class="b" d="m109.2 99.7h0.2c0.2 0 0.2 0 0.2-0.8v-2.1c0-0.7 0-0.8-0.2-0.8h-0.2v-0.2h2.6c0 0.2 0.1 0.4 0.1 0.7 0 0.1-0.1 0.2-0.1 0.2l-0.1 0.1c-0.1-0.7-0.2-0.8-1-0.8h-0.5v1.7h0.5c0.5 0 0.6 0 0.6-0.3l0.1-0.2h0.1v1.1h-0.1l-0.1-0.2c0-0.2-0.1-0.2-0.6-0.2h-0.5v1.7q0.3 0.1 0.6 0.1c1 0 1.1-0.4 1.2-0.9l0.2 0.1c-0.1 0.4-0.1 0.6-0.2 1h-2.8v-0.2z"/><path class="b" d="m116.3 99.7c-0.2 0-0.9 0.3-1.5 0.3-1.3 0-2.3-0.6-2.3-2.1 0-1.6 1.3-2.2 2.2-2.2 0.6 0 1.1 0.2 1.3 0.3 0 0.2 0.1 0.6 0.1 0.9h-0.2c-0.1-0.2-0.1-0.9-1.2-0.9-1 0-1.6 0.6-1.6 1.8 0 1 0.5 2 1.7 2 0.2 0 0.5-0.1 0.7-0.1v-0.2c0-0.8 0-0.8-0.4-0.8l-0.2-0.1v-0.1h1.5v0.1l-0.2 0.1c-0.1 0-0.1 0-0.1 0.6 0 0.2 0 0.2 0.1 0.2h0.1v0.2z"/><path class="b" d="m120 99.8c0-0.1-0.1-0.2-0.2-0.2-0.1 0-0.6 0.4-1.4 0.4-1.2 0-1.3-0.8-1.3-1.6v-1.6c0-0.7 0-0.8-0.3-0.8h-0.2v-0.2h1.5v0.2h-0.2c-0.3 0-0.3 0.1-0.3 0.8v1.5c0 0.9 0.2 1.5 1.1 1.5 0.7 0 1-0.4 1.1-0.5v-2.5c0-0.7 0-0.8-0.2-0.8h-0.2v-0.2h1.4v0.2h-0.2c-0.2 0-0.2 0.1-0.2 0.8v3.1h-0.2l-0.1-0.1z"/><path fill-rule="evenodd" class="b" d="m121.1 99.7h0.3c0.2 0 0.2 0 0.2-0.8v-2.1c0-0.7 0-0.8-0.2-0.8h-0.3v-0.2h1.6c0.6 0 1.4 0.1 1.4 1.1 0 0.5-0.5 0.9-0.8 1 0.1 0.2 0.3 0.6 0.4 0.9 0.3 0.4 0.6 0.8 0.7 0.9q0.1 0 0.3 0v0.2h-0.4c-0.4 0-0.7-0.3-0.9-0.6l-0.3-0.5c-0.1-0.3-0.3-0.5-0.3-0.6-0.1-0.1-0.3-0.1-0.4-0.1h-0.2v0.8c0 0.8 0 0.8 0.2 0.8h0.2v0.2h-1.5v-0.2zm1.1-1.8h0.3c0.5 0 1-0.2 1-0.9 0-0.7-0.5-1-1-1q-0.2 0.1-0.3 0.1z"/><path fill-rule="evenodd" class="b" d="m124.6 97.9c0-1.3 1.1-2.2 2.2-2.2 1.2 0 2.1 0.8 2.1 2.1 0 1.4-1 2.2-2.2 2.2-1.2 0-2.1-0.8-2.1-2.1zm2.2 1.9c1.1 0 1.5-0.9 1.5-1.8 0-1.2-0.6-2.1-1.6-2.1-0.9 0-1.4 0.8-1.4 1.9 0 1.2 0.6 2 1.5 2z"/><path class="b" d="m130.9 97.6c0.5 0.2 1 0.5 1 1.2 0 0.9-0.8 1.2-1.4 1.2-0.5 0-0.8-0.2-1-0.3-0.1-0.2-0.2-0.7-0.2-1.1h0.2c0.1 0.4 0.3 1.2 1.1 1.2 0.5 0 0.8-0.3 0.8-0.8 0-0.4-0.4-0.7-0.9-1l-0.4-0.2c-0.3-0.2-0.6-0.5-0.6-1 0-0.7 0.6-1 1.2-1 0.4 0 0.7 0 0.9 0.1 0 0.2 0 0.7 0 0.9h-0.1c-0.1-0.3-0.2-0.8-0.9-0.8-0.3 0-0.6 0.2-0.6 0.6 0 0.4 0.2 0.6 0.5 0.8l0.4 0.2z"/><path fill-rule="evenodd" class="b" d="m121.9 45.7c0 13.1-10.6 23.7-23.6 23.7-13 0-23.6-10.6-23.6-23.7 0-13.1 10.6-23.7 23.6-23.7 13 0 23.6 10.6 23.6 23.7zm-23.9-13.8c-0.2-0.2-0.6-0.3-0.9-0.1-1.6 0.6-2.2 1.2-2.6 1.6-0.4 0.3-0.2 0.5 0.3 0.7 0.8 0.5 1.2 0.9 1.9 1.4 0.1 0.2 0.3 0.5-0.1 0.7-1.8 1.5-3 3-3.6 4-0.4 0.5-0.3 0.8 0.1 1 1.3 0.7 2.6 1.5 3.8 2.4 4.1 3.4 6.1 9.4 3.4 14.3-2 3.5-4.8 4.9-8.9 5.4q-0.2 0-0.4 0c2.2 0.1 4.3-0.1 6.4-1 4.1-1.8 6.5-4.6 7.2-8.2q0.3-1.2 0.3-2.3c0-3.5-1.5-6.6-2.8-8-0.4-0.5-0.5-0.9-0.5-1.3q0-0.2 0-0.3c0.1-0.5 0.5-1 1-1.2 0.9-0.4 2.8-1.2 4.5-1.7-0.1-0.4-0.4-0.9-0.9-1.7-0.2-0.4-0.3-0.7-0.3-1q0-0.2 0-0.4c0.1-0.2 0.4-0.8 1.2-1h0.1l0.1-0.1c0.4-0.1 1.1-0.2 2.9-0.4-0.6-0.7-1.3-1.3-2.2-2.1-0.5-0.4-0.7-0.6-1.6-0.4-1.8 0.1-4.3 1.4-5.4 1.7-0.5 0.2-0.7 0-0.8-0.1-0.9-0.8-1.5-1.4-2.3-2zm-15.3 4.3c-0.2 0.3 0 0.5 0.4 0.5 1.1 0.2 2.4 0.6 3.1 0.8 0.3 0 0.3 0.2 0.2 0.3-1.3 2-2 3.5-2.4 4.4-0.2 0.4 0 0.6 0.7 0.7 1.8 0.2 4 0.7 5.4 1.2 6.1 2 10.7 8.4 6.7 14.7-1.6 2.4-4.6 3.4-7.5 3.5q-0.8 0-1.5-0.1c1.2 0.3 2.5 0.4 3.9 0.3 3.8-0.5 6.3-2.1 8-5.1 2.6-4.5 0.4-9.8-3.1-12.7-0.9-0.8-2-1.4-3-2l-0.7-0.4c-0.6-0.4-0.8-0.9-0.9-1.2 0-0.4 0-0.9 0.5-1.5 0.6-0.9 1.6-2.3 3.2-3.6-0.4-0.2-0.7-0.4-1.1-0.7q-0.9-0.5-1-1.3 0-0.1 0-0.2c0-0.3 0.1-0.8 0.5-1.2 0.6-0.5 1.3-1.1 2.6-1.7-0.4-0.2-0.8-0.4-1.1-0.5-0.4-0.2-0.8-0.2-1.2-0.1-2.8 1.2-4.6 2.8-5.2 3.5-0.2 0.3-0.4 0.3-0.7 0.2-1.5-0.4-2.7-0.9-3.4-1-0.3-0.1-0.5 0-0.6 0.2-0.7 0.9-1.5 2.3-1.8 2.9zm11.9-0.8q0.1 0 0.1 0zm-0.1 0h0.1q0 0-0.1 0zm7 31.8c6.2-0.9 12.6-4.1 15.9-12.1 2.9-6.9 1.9-13.5 1.5-14.9-0.1-0.2-0.4-0.3-0.5-0.3-1.7-0.4-5-0.4-5.9-0.4-0.2-0.1-0.3-0.3-0.4-0.4-0.4-1.2-0.7-2.2-1.3-3.1-0.1-0.2-0.4-0.3-0.6-0.3-2.5 0.3-2.8 0.4-3.2 0.5-0.4 0.1-0.5 0.3-0.2 0.6 1 1.6 1.2 2.3 1.3 2.8 0.1 0.3 0.1 0.4-0.1 0.5-2 0.5-4.4 1.4-5.3 1.9-0.3 0.1-0.5 0.4-0.1 0.8 3.1 3.5 6.6 15.2-5.1 20.5-8.1 3.7-13.4-1.2-16.5-4.3 0 0 6.9 10.3 20.5 8.2z"/></svg>